<mxfile host="app.diagrams.net" modified="2024-07-02T12:04:01.487Z" agent="Mozilla/5.0 (Windows NT 10.0; Win64; x64) AppleWebKit/537.36 (KHTML, like Gecko) Chrome/126.0.0.0 Safari/537.36" version="24.6.4" etag="AQX4Bk7q-grirN0i-WbG" type="github">
  <diagram name="Page-1" id="H5o4LUgCs-oG3jg-tWDO">
    <mxGraphModel>
      <root>
        <mxCell id="0" />
        <mxCell id="1" parent="0" />
      </root>
    </mxGraphModel>
  </diagram>
</mxfile>
